name Walk7.mot
datacolumns 19
datarows 20
range 2.86500000 2.96000000
endheader

                time	   L_ground_force_vx	   L_ground_force_vy	   L_ground_force_vz	   L_ground_force_px	   L_ground_force_py	   L_ground_force_pz	   R_ground_force_vx	   R_ground_force_vy	   R_ground_force_vz	   R_ground_force_px	   R_ground_force_py	   R_ground_force_pz	   L_ground_torque_x	   L_ground_torque_y	   L_ground_torque_z	   R_ground_torque_x	   R_ground_torque_y	   R_ground_torque_z	
          2.86500000	          0.00000000	          0.00000000	         -0.00000000	         -0.00000000	          0.00000000	         -0.00000000	         13.50590463	         42.84814562	          1.53146957	          0.16976117	          0.00000000	          0.04050608	          0.00000000	          0.00000000	          0.00000000	          0.00000000	         -3.20061103	          0.00000000	
          2.87000000	          0.00000000	          0.00000000	         -0.00000000	         -0.00000000	          0.00000000	         -0.00000000	          9.06789143	         25.35063978	          1.46956424	          0.13341046	          0.00000000	          0.03153762	          0.00000000	          0.00000000	          0.00000000	          0.00000000	         -2.24883753	          0.00000000	
          2.87500000	          0.00000000	          0.00000000	         -0.00000000	         -0.00000000	          0.00000000	         -0.00000000	          5.50472023	         12.12490503	          1.31364124	          0.09954851	          0.00000000	          0.02329212	          0.00000000	          0.00000000	          0.00000000	          0.00000000	         -1.46062830	          0.00000000	
          2.88000000	          0.00000000	          0.00000000	         -0.00000000	         -0.00000000	          0.00000000	         -0.00000000	          2.78437075	          2.68456417	          1.10975771	          0.06996042	          0.00000000	          0.01616231	          0.00000000	          0.00000000	          0.00000000	          0.00000000	         -0.83964695	          0.00000000	
          2.88500000	          0.00000000	          0.00000000	         -0.00000000	         -0.00000000	          0.00000000	         -0.00000000	          0.81965327	         -3.58166012	          0.89124273	          0.04545312	          0.00000000	          0.01031187	          0.00000000	          0.00000000	          0.00000000	          0.00000000	         -0.37501773	          0.00000000	
          2.89000000	          0.00000000	          0.00000000	         -0.00000000	         -0.00000000	          0.00000000	         -0.00000000	         -0.50510665	         -7.31680236	          0.68062678	          0.02614227	          0.00000000	          0.00574454	          0.00000000	          0.00000000	          0.00000000	          0.00000000	         -0.04740063	          0.00000000	
          2.89500000	          0.00000000	          0.00000000	         -0.00000000	         -0.00000000	          0.00000000	         -0.00000000	         -1.31470170	         -9.13340612	          0.49173351	          0.01169106	          0.00000000	          0.00236128	          0.00000000	          0.00000000	          0.00000000	          0.00000000	          0.16644268	          0.00000000	
          2.90000000	          0.00000000	         -0.00000000	         -0.00000000	         -0.00000000	          0.00000000	         -0.00000000	         -1.72990231	         -9.57601693	          0.33170973	          0.00149916	          0.00000000	          0.00000492	          0.00000000	          0.00000000	          0.00000000	          0.00000000	          0.29041265	          0.00000000	
          2.90500000	         -0.00000000	         -0.00000000	         -0.00000000	         -0.00000000	          0.00000000	         -0.00000000	         -1.85934806	         -9.10250752	          0.20285536	         -0.00515527	          0.00000000	         -0.00150657	          0.00000000	          0.00000000	          0.00000000	          0.00000000	          0.34694406	          0.00000000	
          2.91000000	         -0.00000000	         -0.00000000	         -0.00000000	         -0.00000000	          0.00000000	         -0.00000000	         -1.79530717	         -8.07895682	          0.10418014	         -0.00901491	          0.00000000	         -0.00235670	          0.00000000	         -0.00000000	          0.00000000	          0.00000000	          0.35575748	          0.00000000	
          2.91500000	         -0.00000000	         -0.00000000	         -0.00000000	         -0.00000000	          0.00000000	         -0.00000000	         -1.61225189	         -6.78362579	          0.03266224	         -0.01077706	          0.00000000	         -0.00271549	          0.00000000	         -0.00000000	          0.00000000	          0.00000000	          0.33327324	          0.00000000	
          2.92000000	         -0.00000000	         -0.00000000	         -0.00000000	          0.00000000	          0.00000000	          0.00000000	         -1.36735246	         -5.41645231	         -0.01578399	         -0.01105475	          0.00000000	         -0.00273081	          0.00000000	         -0.00000000	          0.00000000	          0.00000000	          0.29249665	          0.00000000	
          2.92500000	         -0.00000000	         -0.00000000	          0.00000000	          0.00000000	          0.00000000	          0.00000000	         -1.10216215	         -4.11133456	         -0.04560329	         -0.01035853	          0.00000000	         -0.00252466	          0.00000000	         -0.00000000	          0.00000000	          0.00000000	          0.24321446	          0.00000000	
          2.93000000	         -0.00000000	         -0.00000000	          0.00000000	          0.00000000	          0.00000000	          0.00000000	         -0.84493304	         -2.94923098	         -0.06111917	         -0.00909283	          0.00000000	         -0.00219279	          0.00000000	         -0.00000000	          0.00000000	          0.00000000	          0.19237543	          0.00000000	
          2.93500000	         -0.00000000	         -0.00000000	          0.00000000	          0.00000000	          0.00000000	          0.00000000	         -0.61315301	         -1.97074795	         -0.06623541	         -0.00756202	          0.00000000	         -0.00180655	          0.00000000	         -0.00000000	          0.00000000	          0.00000000	          0.14455877	          0.00000000	
          2.94000000	         -0.00000000	         -0.00000000	          0.00000000	          0.00000000	          0.00000000	          0.00000000	         -0.41602398	         -1.18740341	         -0.06427794	         -0.00598228	          0.00000000	         -0.00141598	          0.00000000	         -0.00000000	          0.00000000	          0.00000000	          0.10246202	          0.00000000	
          2.94500000	         -0.00000000	         -0.00000000	          0.00000000	          0.00000000	          0.00000000	          0.00000000	         -0.25670648	         -0.59115047	         -0.05793904	         -0.00449610	          0.00000000	         -0.00105353	          0.00000000	         -0.00000000	          0.00000000	          0.00000000	          0.06736269	          0.00000000	
          2.95000000	         -0.00000000	         -0.00000000	          0.00000000	          0.00000000	          0.00000000	          0.00000000	         -0.13423688	         -0.16203216	         -0.04929175	         -0.00318745	          0.00000000	         -0.00073778	          0.00000000	         -0.00000000	          0.00000000	          0.00000000	          0.03952659	          0.00000000	
          2.95500000	         -0.00000000	         -0.00000000	          0.00000000	          0.00000000	          0.00000000	          0.00000000	         -0.04508298	          0.12596788	         -0.03984803	         -0.00209615	          0.00000000	         -0.00047694	          0.00000000	         -0.00000000	          0.00000000	          0.00000000	          0.01854976	          0.00000000	
          2.96000000	         -0.00000000	         -0.00000000	          0.00000000	          0.00000000	          0.00000000	          0.00000000	          0.01565521	          0.30069419	         -0.03064046	         -0.00123054	          0.00000000	         -0.00027195	          0.00000000	         -0.00000000	          0.00000000	          0.00000000	          0.00363067	          0.00000000	
